<?xml version="1.0" encoding="UTF-8"?>
<svg width="210px" height="135px" viewBox="0 0 210 135" version="1.1" xmlns="http://www.w3.org/2000/svg" xmlns:xlink="http://www.w3.org/1999/xlink">
    <title>logo_static_logo</title>
    <g id="logo_static_logo" stroke="none" stroke-width="1" fill="none" fill-rule="evenodd">
        <g id="Group" transform="translate(-21.000000, -60.000000)" fill="#FFFFFF">
            <path d="M178.8416,82.8672 C178.8416,80.5376 177.0496,78.7456 174.8992,78.7456 C172.5696,78.7456 170.9568,80.5376 171.136,82.8672 C171.3152,85.9136 167.0144,88.7808 161.4592,89.6768 C153.9328,76.7744 142.2848,66.56 130.4576,66.56 C120.2432,66.56 115.4048,72.6528 115.4048,78.7456 C115.4048,94.8736 140.8512,99.1744 156.8,97.7408 C161.1008,106.7008 163.4304,117.4528 163.4304,127.8464 C163.4304,157.5936 147.6608,178.9184 125.0816,178.9184 C111.8208,178.9184 105.728,169.2416 102.6816,164.224 C114.1504,150.0672 120.96,131.4304 120.96,119.9616 C120.96,103.4752 113.0752,100.4288 108.0576,100.4288 C94.6176,100.4288 88.3456,120.1408 88.3456,133.9392 C88.3456,145.0496 90.1376,154.9056 93.3632,162.9696 C86.3744,170.496 77.4144,176.768 67.3792,176.768 C61.2864,176.768 56.448,174.2592 52.864,170.6752 C48.2048,165.8368 45.696,157.7728 45.696,147.2 C45.696,137.7024 48.0256,126.7712 52.6848,116.736 C74.368,116.736 100.5312,100.0704 100.5312,88.064 C100.5312,81.4336 95.5136,76.7744 88.704,76.7744 C72.7552,76.7744 57.8816,90.9312 48.2048,108.672 C41.5744,107.0592 34.5856,101.8624 34.5856,92.3648 C34.5856,91.648 34.944,88.7808 34.944,88.2432 C34.944,86.0928 33.3312,84.3008 31.1808,84.3008 C26.88,84.3008 26.88,89.3184 26.88,92.3648 C26.88,104.192 34.944,112.4352 44.8,115.4816 C40.4992,125.8752 37.632,136.9856 37.632,147.2 C37.632,169.9584 48.0256,183.936 67.3792,183.936 C77.7728,183.936 87.9872,179.0976 97.1264,169.9584 C103.3984,181.0688 113.9712,186.2656 125.0816,186.2656 C151.7824,186.2656 171.4944,162.432 171.4944,127.8464 C171.4944,117.0944 168.9856,105.984 164.864,96.3072 C175.4368,93.6192 178.8416,88.064 178.8416,82.8672 L178.8416,82.8672 Z M123.648,78.7456 C123.648,76.2368 125.9776,74.2656 130.4576,74.2656 C137.6256,74.2656 146.2272,80.1792 153.216,90.5728 C134.4,91.2896 123.648,84.8384 123.648,78.7456 L123.648,78.7456 Z M108.0576,108.1344 C111.6416,108.1344 112.896,113.152 112.896,119.9616 C112.896,128.384 107.8784,144.3328 99.2768,156.8768 C97.3056,150.4256 96.2304,142.0032 96.2304,133.9392 C96.2304,123.1872 101.0688,108.1344 108.0576,108.1344 L108.0576,108.1344 Z M88.704,84.3008 C90.3168,84.3008 92.4672,85.1968 92.4672,88.064 C92.4672,93.9776 74.368,107.2384 56.6272,109.0304 C65.0496,94.336 77.5936,84.3008 88.704,84.3008 L88.704,84.3008 Z M194.6112,158.6688 C187.8016,158.6688 182.2464,164.0448 182.2464,171.5712 C182.2464,180.5312 191.5648,186.4448 201.7792,186.4448 C215.3984,186.4448 223.2832,178.2016 223.2832,167.0912 C223.2832,157.952 217.3696,152.7552 208.5888,147.5584 C201.4208,143.2576 199.808,141.1072 199.808,137.7024 C199.808,133.0432 203.0336,129.4592 208.768,129.4592 C213.4272,129.4592 215.936,133.4016 216.4736,135.1936 C216.832,136.6272 218.624,137.5232 219.6992,137.5232 C222.0288,137.5232 223.8208,135.7312 223.8208,133.4016 C223.8208,130.3552 219.6992,122.6496 208.9472,122.6496 C197.8368,122.6496 191.9232,130.3552 191.9232,137.7024 C191.9232,146.6624 199.2704,151.5008 205.0048,154.5472 C213.0688,158.848 215.2192,163.8656 215.2192,168.1664 C215.2192,176.2304 208.4096,179.9936 201.9584,179.9936 C195.5072,179.9936 190.3104,175.6928 190.3104,171.392 C190.3104,168.8832 191.2064,166.1952 194.6112,166.1952 C195.8656,166.1952 196.4032,166.5536 197.4784,166.7328 C198.5536,166.912 201.0624,166.3744 201.0624,163.328 C201.0624,159.744 197.8368,158.6688 194.6112,158.6688 L194.6112,158.6688 Z" id="WS"></path>
        </g>
    </g>
</svg>