<?xml version="1.0" encoding="UTF-8"?>
<svg width="100px" height="100px" viewBox="0 0 100 100" version="1.1" xmlns="http://www.w3.org/2000/svg" xmlns:xlink="http://www.w3.org/1999/xlink">
    <!-- Generator: Sketch 42 (36781) - http://www.bohemiancoding.com/sketch -->
    <title>logo_web_invert</title>
    <desc>Created with Sketch.</desc>
    <defs></defs>
    <g id="LogoSet" stroke="none" stroke-width="1" fill="none" fill-rule="evenodd">
        <g id="logo_web_invert">
            <g id="logo_web" transform="translate(-10.000000, -10.000000)">
                <rect id="Rectangle" x="0" y="0" width="120" height="120"></rect>
                <path d="M83.832,38.844 C83.832,37.752 82.992,36.912 81.984,36.912 C80.892,36.912 80.136,37.752 80.22,38.844 C80.304,40.272 78.288,41.616 75.684,42.036 C72.156,35.988 66.696,31.2 61.152,31.2 C56.364,31.2 54.096,34.056 54.096,36.912 C54.096,44.472 66.024,46.488 73.5,45.816 C75.516,50.016 76.608,55.056 76.608,59.928 C76.608,73.872 69.216,83.868 58.632,83.868 C52.416,83.868 49.56,79.332 48.132,76.98 C53.508,70.344 56.7,61.608 56.7,56.232 C56.7,48.504 53.004,47.076 50.652,47.076 C44.352,47.076 41.412,56.316 41.412,62.784 C41.412,67.992 42.252,72.612 43.764,76.392 C40.488,79.92 36.288,82.86 31.584,82.86 C28.728,82.86 26.46,81.684 24.78,80.004 C22.596,77.736 21.42,73.956 21.42,69 C21.42,64.548 22.512,59.424 24.696,54.72 C34.86,54.72 47.124,46.908 47.124,41.28 C47.124,38.172 44.772,35.988 41.58,35.988 C34.104,35.988 27.132,42.624 22.596,50.94 C19.488,50.184 16.212,47.748 16.212,43.296 C16.212,42.96 16.38,41.616 16.38,41.364 C16.38,40.356 15.624,39.516 14.616,39.516 C12.6,39.516 12.6,41.868 12.6,43.296 C12.6,48.84 16.38,52.704 21,54.132 C18.984,59.004 17.64,64.212 17.64,69 C17.64,79.668 22.512,86.22 31.584,86.22 C36.456,86.22 41.244,83.952 45.528,79.668 C48.468,84.876 53.424,87.312 58.632,87.312 C71.148,87.312 80.388,76.14 80.388,59.928 C80.388,54.888 79.212,49.68 77.28,45.144 C82.236,43.884 83.832,41.28 83.832,38.844 L83.832,38.844 Z M57.96,36.912 C57.96,35.736 59.052,34.812 61.152,34.812 C64.512,34.812 68.544,37.584 71.82,42.456 C63,42.792 57.96,39.768 57.96,36.912 L57.96,36.912 Z M50.652,50.688 C52.332,50.688 52.92,53.04 52.92,56.232 C52.92,60.18 50.568,67.656 46.536,73.536 C45.612,70.512 45.108,66.564 45.108,62.784 C45.108,57.744 47.376,50.688 50.652,50.688 L50.652,50.688 Z M41.58,39.516 C42.336,39.516 43.344,39.936 43.344,41.28 C43.344,44.052 34.86,50.268 26.544,51.108 C30.492,44.22 36.372,39.516 41.58,39.516 L41.58,39.516 Z M91.224,74.376 C88.032,74.376 85.428,76.896 85.428,80.424 C85.428,84.624 89.796,87.396 94.584,87.396 C100.968,87.396 104.664,83.532 104.664,78.324 C104.664,74.04 101.892,71.604 97.776,69.168 C94.416,67.152 93.66,66.144 93.66,64.548 C93.66,62.364 95.172,60.684 97.86,60.684 C100.044,60.684 101.22,62.532 101.472,63.372 C101.64,64.044 102.48,64.464 102.984,64.464 C104.076,64.464 104.916,63.624 104.916,62.532 C104.916,61.104 102.984,57.492 97.944,57.492 C92.736,57.492 89.964,61.104 89.964,64.548 C89.964,68.748 93.408,71.016 96.096,72.444 C99.876,74.46 100.884,76.812 100.884,78.828 C100.884,82.608 97.692,84.372 94.668,84.372 C91.644,84.372 89.208,82.356 89.208,80.34 C89.208,79.164 89.628,77.904 91.224,77.904 C91.812,77.904 92.064,78.072 92.568,78.156 C93.072,78.24 94.248,77.988 94.248,76.56 C94.248,74.88 92.736,74.376 91.224,74.376 L91.224,74.376 Z" id="WS" fill="#0D888C"></path>
            </g>
        </g>
    </g>
</svg>
