<?xml version="1.0" encoding="UTF-8"?>
<svg width="162px" height="114px" viewBox="0 0 162 114" version="1.1" xmlns="http://www.w3.org/2000/svg" xmlns:xlink="http://www.w3.org/1999/xlink">
    <title>logo-callback-bg</title>
    <g id="logo-callback-bg" stroke="none" stroke-width="1" fill="none" fill-rule="evenodd">
        <g id="Group" transform="translate(-19.000000, -49.000000)"></g>
        <path d="M114.120283,13.8562874 C112.418632,13.8562874 111.240566,15.1586826 111.371462,16.8517964 C111.502358,19.0658683 108.360849,21.1497006 104.303066,21.8008982 C98.8054245,12.4236527 90.2971698,5 81.6580189,5 C74.196934,5 70.6627358,9.42814371 70.6627358,13.8562874 C70.6627358,25.5778443 89.25,28.7035928 100.899764,27.6616766 C104.041274,34.1736527 105.742925,41.988024 105.742925,49.5419162 C105.742925,71.1616766 94.2240566,86.6601796 77.7311321,86.6601796 C68.0448113,86.6601796 63.5943396,79.6272455 61.3691038,75.9805389 C69.7464623,65.6916168 74.7205189,52.1467066 74.7205189,43.8113772 C74.7205189,31.8293413 68.9610849,29.6152695 65.2959906,29.6152695 C55.4787736,29.6152695 50.8974057,43.9416168 50.8974057,53.9700599 C50.8974057,62.0449102 52.2063679,69.2080838 54.5625,75.0688623 C49.4575472,80.5389222 42.9127358,85.0973054 35.5825472,85.0973054 C31.1320755,85.0973054 27.5978774,83.2739521 24.9799528,80.6691617 C21.5766509,77.1526946 19.7441038,71.2919162 19.7441038,63.6077844 C19.7441038,56.7050898 21.4457547,48.760479 24.8490566,41.4670659 C40.6875,41.4670659 59.7983491,29.3547904 59.7983491,20.6287425 C59.7983491,15.8098802 56.1332547,12.4236527 51.1591981,12.4236527 C39.509434,12.4236527 28.6450472,22.7125749 21.5766509,35.6062874 C16.7334906,34.4341317 11.6285377,30.6571856 11.6285377,23.754491 C11.6285377,23.2335329 11.8903302,21.1497006 11.8903302,20.758982 C11.8903302,19.1961078 10.7122642,17.8937126 9.14150943,17.8937126 C6,17.8937126 6,21.5404192 6,23.754491 C6,32.3502994 11.8903302,38.3413174 19.0896226,40.5553892 C15.9481132,48.1092814 13.8537736,56.1841317 13.8537736,63.6077844 C13.8537736,80.1482036 21.4457547,90.3068862 35.5825472,90.3068862 C43.1745283,90.3068862 50.6356132,86.7904192 57.3113208,80.1482036 C61.8926887,88.2230539 69.615566,92 77.7311321,92 C97.2346698,92 111.633255,74.6781437 111.633255,49.5419162 C111.633255,41.7275449 109.800708,33.6526946 106.790094,26.6197605 C114.512972,24.6661677 117,20.6287425 117,16.8517964 C117,15.1586826 115.691038,13.8562874 114.120283,13.8562874 Z M77,14.285674 C77,12.4456965 78.7333333,11 82.0666667,11 C87.4,11 93.8,15.3370896 99,22.9598532 C85,23.4855611 77,18.7541906 77,14.285674 L77,14.285674 Z M65.516129,36 C68.0967742,36 69,39.6029412 69,44.4926471 C69,50.5404412 65.3870968,61.9926471 59.1935484,71 C57.7741935,66.3676471 57,60.3198529 57,54.5294118 C57,46.8088235 60.483871,36 65.516129,36 L65.516129,36 Z M51.27,18 C52.44,18 54,18.6521739 54,20.7391304 C54,25.0434783 40.87,34.6956522 28,36 C34.11,25.3043478 43.21,18 51.27,18 L51.27,18 Z M128.219828,72.5365169 C123.142241,72.5365169 119,76.497191 119,82.0421348 C119,88.6432584 125.948276,93 133.564655,93 C143.719828,93 149.599138,86.9269663 149.599138,78.741573 C149.599138,72.008427 145.189655,68.1797753 138.642241,64.3511236 C133.297414,61.1825843 132.094828,59.5983146 132.094828,57.0898876 C132.094828,53.6573034 134.5,51.0168539 138.775862,51.0168539 C142.25,51.0168539 144.12069,53.9213483 144.521552,55.241573 C144.788793,56.2977528 146.125,56.9578652 146.926724,56.9578652 C148.663793,56.9578652 150,55.6376404 150,53.9213483 C150,51.6769663 146.926724,46 138.909483,46 C130.625,46 126.215517,51.6769663 126.215517,57.0898876 C126.215517,63.6910112 131.693966,67.255618 135.969828,69.5 C141.982759,72.6685393 143.586207,76.3651685 143.586207,79.5337079 C143.586207,85.4747191 138.508621,88.247191 133.698276,88.247191 C128.887931,88.247191 125.012931,85.0786517 125.012931,81.9101124 C125.012931,80.0617978 125.681034,78.0814607 128.219828,78.0814607 C129.155172,78.0814607 129.556034,78.3455056 130.357759,78.4775281 C131.159483,78.6095506 133.030172,78.2134831 133.030172,75.9691011 C133.030172,73.3286517 130.625,72.5365169 128.219828,72.5365169 L128.219828,72.5365169 Z" id="WS" fill="#0D888C" opacity="0.296977452" transform="translate(78.000000, 49.000000) rotate(-30.000000) translate(-78.000000, -49.000000) "></path>
    </g>
</svg>