<?xml version="1.0" encoding="UTF-8"?>
<svg width="210px" height="150px" viewBox="0 0 210 150" version="1.1" xmlns="http://www.w3.org/2000/svg" xmlns:xlink="http://www.w3.org/1999/xlink">
    <title>logo_footer_fade</title>
    <g id="logo_footer_fade" stroke="none" stroke-width="1" fill="none" fill-rule="evenodd" opacity="0.151031">
        <g id="Group" transform="translate(-19.000000, -49.000000)" fill="#7FA4A6">
            <path d="M168.7504,75.9772 C166.5027,75.9772 164.9466,77.7062 165.1195,79.9539 C165.2924,82.8932 161.1428,85.6596 155.7829,86.5241 C148.5211,74.0753 137.2826,64.22 125.8712,64.22 C116.0159,64.22 111.3476,70.0986 111.3476,75.9772 C111.3476,91.5382 135.8994,95.6878 151.2875,94.3046 C155.4371,102.9496 157.6848,113.3236 157.6848,123.3518 C157.6848,152.0532 142.4696,172.6283 120.6842,172.6283 C107.8896,172.6283 102.011,163.2917 99.0717,158.4505 C110.1373,144.7914 116.7075,126.8098 116.7075,115.7442 C116.7075,99.8374 109.0999,96.8981 104.2587,96.8981 C91.2912,96.8981 85.2397,115.9171 85.2397,129.2304 C85.2397,139.9502 86.9687,149.4597 90.0809,157.2402 C83.3378,164.502 74.6928,170.5535 65.0104,170.5535 C59.1318,170.5535 54.4635,168.1329 51.0055,164.6749 C46.5101,160.0066 44.0895,152.2261 44.0895,142.025 C44.0895,132.8613 46.3372,122.3144 50.8326,112.632 C71.7535,112.632 96.9969,96.5523 96.9969,84.968 C96.9969,78.5707 92.1557,74.0753 85.5855,74.0753 C70.1974,74.0753 55.8467,87.7344 46.5101,104.8515 C40.1128,103.2954 33.3697,98.2813 33.3697,89.1176 C33.3697,88.426 33.7155,85.6596 33.7155,85.1409 C33.7155,83.0661 32.1594,81.3371 30.0846,81.3371 C25.935,81.3371 25.935,86.1783 25.935,89.1176 C25.935,100.529 33.7155,108.4824 43.225,111.4217 C39.0754,121.4499 36.309,132.1697 36.309,142.025 C36.309,163.9833 46.3372,177.4695 65.0104,177.4695 C75.0386,177.4695 84.8939,172.8012 93.7118,163.9833 C99.7633,174.7031 109.9644,179.7172 120.6842,179.7172 C146.4463,179.7172 165.4653,156.7215 165.4653,123.3518 C165.4653,112.9778 163.0447,102.258 159.068,92.9214 C169.2691,90.3279 172.5542,84.968 172.5542,79.9539 C172.5542,77.7062 170.8252,75.9772 168.7504,75.9772 Z M125.8712,71.6547 C132.7872,71.6547 141.0864,77.3604 147.8295,87.3886 C129.675,88.0802 119.301,81.8558 119.301,75.9772 C119.301,73.5566 121.5487,71.6547 125.8712,71.6547 Z M108.927,115.7442 C108.927,123.8705 104.0858,139.2586 95.7866,151.3616 C93.8847,145.1372 92.8473,137.0109 92.8473,129.2304 C92.8473,118.8564 97.5156,104.3328 104.2587,104.3328 C107.7167,104.3328 108.927,109.174 108.927,115.7442 Z M89.2164,84.968 C89.2164,90.6737 71.7535,103.4683 54.6364,105.1973 C62.7627,91.0195 74.8657,81.3371 85.5855,81.3371 C87.1416,81.3371 89.2164,82.2016 89.2164,84.968 Z M175.8393,165.5394 C175.8393,174.1844 184.8301,179.8901 194.6854,179.8901 C207.8258,179.8901 215.4334,171.9367 215.4334,161.2169 C215.4334,152.399 209.7277,147.3849 201.2556,142.3708 C194.3396,138.2212 192.7835,136.1464 192.7835,132.8613 C192.7835,128.3659 195.8957,124.9079 201.4285,124.9079 C205.9239,124.9079 208.3445,128.7117 208.8632,130.4407 C209.209,131.8239 210.938,132.6884 211.9754,132.6884 C214.2231,132.6884 215.9521,130.9594 215.9521,128.7117 C215.9521,125.7724 211.9754,118.3377 201.6014,118.3377 C190.8816,118.3377 185.1759,125.7724 185.1759,132.8613 C185.1759,141.5063 192.2648,146.1746 197.7976,149.1139 C205.5781,153.2635 207.6529,158.1047 207.6529,162.2543 C207.6529,170.0348 201.0827,173.6657 194.8583,173.6657 C188.6339,173.6657 183.6198,169.5161 183.6198,165.3665 C183.6198,162.9459 184.4843,160.3524 187.7694,160.3524 C188.9797,160.3524 189.4984,160.6982 190.5358,160.8711 C191.5732,161.044 193.9938,160.5253 193.9938,157.586 C193.9938,154.128 190.8816,153.0906 187.7694,153.0906 C181.1992,153.0906 175.8393,158.2776 175.8393,165.5394 Z" id="WS" transform="translate(120.943550, 122.055050) rotate(-20.000000) translate(-120.943550, -122.055050) "></path>
        </g>
    </g>
</svg>